<svg width="17" height="14" viewBox="0 0 17 14" fill="none" xmlns="http://www.w3.org/2000/svg">
<path d="M5.52503 9.51308C5.46154 9.51308 5.39806 9.52254 5.3375 9.54254C4.99325 9.65632 4.6312 9.72929 4.25003 9.72929C3.86886 9.72929 3.50682 9.65632 3.1623 9.54254C3.10174 9.52254 3.03852 9.51308 2.97504 9.51308C1.32657 9.51308 -0.00872269 10.8773 4.2911e-05 12.5567C0.00376165 13.2664 0.577245 13.8372 1.27504 13.8372H7.22502C7.92282 13.8372 8.4963 13.2664 8.50002 12.5567C8.50879 10.8773 7.17349 9.51308 5.52503 9.51308ZM4.25003 8.64826C5.65837 8.64826 6.80003 7.48669 6.80003 6.05378C6.80003 4.62087 5.65837 3.4593 4.25003 3.4593C2.84169 3.4593 1.70004 4.62087 1.70004 6.05378C1.70004 7.48669 2.84169 8.64826 4.25003 8.64826ZM15.725 0H5.52503C4.82192 0 4.25003 0.601324 4.25003 1.34021V2.59448C4.87212 2.59448 5.448 2.77771 5.95003 3.07554V1.72965H15.3V9.51308H13.6V7.78343H10.2V9.51308H8.1749C8.68224 9.96414 9.05465 10.5598 9.22916 11.2427H15.725C16.4281 11.2427 17 10.6414 17 9.90252V1.34021C17 0.601324 16.4281 0 15.725 0Z" fill="#783BA2"/>
</svg>
