<svg width="43" height="41" viewBox="0 0 43 41" fill="none" xmlns="http://www.w3.org/2000/svg">
<path d="M1.18968 18.9845L15.1904 1.48738C16.4404 -0.0748596 18.6072 1.01871 18.6072 3.25792L18.6072 13.2563H29.9411C31.0495 13.2563 31.9412 14.3707 31.9412 15.7558L31.9412 25.7542C31.9412 27.1394 31.0495 28.2538 29.9411 28.2538L18.6072 28.2538L18.6072 38.2521C18.6072 40.4809 16.4488 41.5849 15.1904 40.0226L1.18968 22.5256C0.414642 21.5465 0.414642 19.9635 1.18968 18.9845ZM26.6076 2.00813V6.1741C26.6076 6.86149 27.0576 7.42389 27.6077 7.42389H34.608C36.0831 7.42389 37.2748 8.91323 37.2748 10.7567L37.2748 30.7534C37.2748 32.5968 36.0831 34.0861 34.608 34.0861H27.6077C27.0576 34.0861 26.6076 34.6485 26.6076 35.3359V39.5019C26.6076 40.1893 27.0576 40.7517 27.6077 40.7517H34.608C39.0249 40.7517 42.6084 36.2733 42.6084 30.7534L42.6084 10.7567C42.6084 5.23676 39.0249 0.758335 34.608 0.758335H27.6077C27.0576 0.758335 26.6076 1.32074 26.6076 2.00813Z" fill="white"/>
</svg>
