<svg width="16" height="13" viewBox="0 0 16 13" fill="none" xmlns="http://www.w3.org/2000/svg">
<path d="M5.60022 6.40025C7.36779 6.40025 8.80034 4.96769 8.80034 3.20013C8.80034 1.43256 7.36779 0 5.60022 0C3.83265 0 2.40009 1.43256 2.40009 3.20013C2.40009 4.96769 3.83265 6.40025 5.60022 6.40025ZM7.84031 7.20028H7.42279C6.86777 7.45529 6.25024 7.6003 5.60022 7.6003C4.95019 7.6003 4.33517 7.45529 3.77765 7.20028H3.36013C1.50506 7.20028 0 8.70534 0 10.5604V11.6005C0 12.263 0.537521 12.8005 1.20005 12.8005H8.07282C8.01281 12.6305 7.98781 12.4505 8.00781 12.268L8.17782 10.7454L8.20782 10.4679L8.40533 10.2704L10.3379 8.33783C9.72538 7.6453 8.83785 7.20028 7.84031 7.20028ZM8.97285 10.8329L8.80285 12.358C8.77534 12.613 8.99035 12.828 9.24286 12.798L10.7654 12.628L14.2131 9.18036L12.4205 7.38779L8.97285 10.8329ZM15.8256 6.72276L14.8781 5.77523C14.6456 5.54272 14.2656 5.54272 14.033 5.77523L13.088 6.72026L12.9855 6.82277L14.7806 8.61534L15.8256 7.5703C16.0581 7.33529 16.0581 6.95777 15.8256 6.72276Z" fill="white"/>
</svg>
